<svg width="128" height="42" viewBox="0 0 128 42" fill="none" xmlns="http://www.w3.org/2000/svg">
<g filter="url(#filter0_d)">
<g clip-path="url(#clip0)">
<path d="M34 17.0175C34 12.2912 30.5392 8.31722 25.8411 7.15309C25.3591 7.03481 24.9556 6.97705 24.3681 6.97706C23.7806 6.97707 10 6.97706 10 6.97706L12.7418 11.4609H19.9823L20.9604 11.4393H21.0219L21.7144 11.431H21.7227C22.8254 11.4144 24.7999 11.3944 25.4027 11.4575C25.8947 11.511 26.3699 11.6672 26.7977 11.9159C27.2179 12.1826 27.6014 12.503 27.9386 12.8691L27.9801 12.8973C28.0156 12.9453 28.0563 12.9893 28.1013 13.0285L28.2458 13.1946C28.2989 13.2577 28.3504 13.3208 28.4002 13.3856C28.45 13.4503 28.4799 13.4869 28.5165 13.54C28.553 13.5932 28.6028 13.6579 28.6427 13.7177C28.6825 13.7775 28.7241 13.8389 28.7622 13.9004C28.8004 13.9618 28.8337 14.0133 28.8669 14.0665C28.8674 14.0714 28.8674 14.0764 28.8669 14.0814C28.9034 14.1428 28.9399 14.2076 28.9732 14.2707C29.0064 14.3338 29.0412 14.4003 29.0728 14.465C29.1409 14.6045 29.204 14.7473 29.2621 14.8918C29.2837 14.9499 29.3069 15.0081 29.3269 15.0678C29.3468 15.1276 29.38 15.2223 29.4049 15.2987C29.4298 15.3751 29.4415 15.4166 29.4581 15.478C29.478 15.5461 29.4946 15.6159 29.5112 15.6856C29.5112 15.6856 29.5112 15.6939 29.5112 15.6989C29.5262 15.7637 29.5411 15.8301 29.5527 15.8949C29.5644 15.9596 29.5843 16.0609 29.5976 16.1456C29.6108 16.2303 29.6175 16.2801 29.6241 16.3482C29.6308 16.4163 29.6391 16.4794 29.6441 16.5458C29.6449 16.5541 29.6449 16.5625 29.6441 16.5707C29.6441 16.6471 29.6557 16.7219 29.6573 16.7983C29.659 16.8746 29.6573 16.9494 29.6573 17.0258C29.6573 17.1022 29.6573 17.1769 29.6573 17.2516C29.6573 17.3264 29.6573 17.3645 29.6573 17.4177C29.6573 17.4459 29.6573 17.4741 29.6573 17.5024C29.6573 17.5788 29.6441 17.6568 29.6341 17.7349L29.6142 17.8794C29.5887 18.0454 29.5572 18.2115 29.5195 18.3776C29.5046 18.439 29.488 18.5004 29.4714 18.5619C29.4547 18.6233 29.4332 18.7014 29.4099 18.7711C29.3867 18.8409 29.3651 18.9123 29.3402 18.982C29.3153 19.0518 29.292 19.1149 29.2654 19.1797C29.2389 19.2444 29.2223 19.2876 29.1973 19.3457C29.1724 19.4038 29.1674 19.4171 29.1508 19.452C29.1342 19.4869 29.1077 19.5467 29.0844 19.5932C29.0612 19.6397 29.0246 19.7127 28.9931 19.7725C28.9615 19.8323 28.935 19.8805 28.9034 19.9386L28.8669 20.0017L28.7772 20.1495C28.7407 20.2109 28.7008 20.2707 28.6593 20.3305C28.6178 20.3903 28.5779 20.4501 28.5347 20.5082C28.4916 20.5663 28.45 20.6244 28.4052 20.6743C28.3604 20.7241 28.3006 20.8071 28.2391 20.8719C28.1561 20.9682 28.0731 21.0629 27.9817 21.1559C27.8904 21.2489 27.7609 21.38 27.6496 21.488L27.5035 21.6159L27.4785 21.6374C27.4304 21.6773 27.3806 21.7188 27.3307 21.757L27.1979 21.86C26.8226 22.1307 26.1351 22.5375 25.4027 22.5741H25.2998H17.7354L18.3349 21.5312L19.2167 19.9967L19.6319 19.266H23.6175C24.2114 19.2665 24.7811 19.0311 25.2015 18.6116C25.6219 18.1922 25.8585 17.623 25.8594 17.0291C25.8493 16.4259 25.6012 15.8512 25.1691 15.4303C24.737 15.0094 24.1559 14.7764 23.5527 14.7822H17.0661L10.0266 27.023H24.9278C25.1101 27.0236 25.292 27.0058 25.4708 26.9699C30.3565 25.9253 34 21.8683 34 17.0175Z" fill="white"/>
<path d="M34 17.0175C34 12.2912 30.5392 8.31722 25.8411 7.15309C25.3591 7.03481 24.9556 6.97705 24.3681 6.97706C23.7806 6.97707 10 6.97706 10 6.97706L12.7418 11.4609H19.9823L20.9604 11.4393H21.0219L21.7144 11.431H21.7227C22.8254 11.4144 24.7999 11.3944 25.4027 11.4575C25.8947 11.511 26.3699 11.6672 26.7977 11.9159C27.2179 12.1826 27.6014 12.503 27.9386 12.8691L27.9801 12.8973C28.0156 12.9453 28.0563 12.9893 28.1013 13.0285L28.2458 13.1946C28.2989 13.2577 28.3504 13.3208 28.4002 13.3856C28.45 13.4503 28.4799 13.4869 28.5165 13.54C28.553 13.5932 28.6028 13.6579 28.6427 13.7177C28.6825 13.7775 28.7241 13.8389 28.7622 13.9004C28.8004 13.9618 28.8337 14.0133 28.8669 14.0665C28.8674 14.0714 28.8674 14.0764 28.8669 14.0814C28.9034 14.1428 28.9399 14.2076 28.9732 14.2707C29.0064 14.3338 29.0412 14.4003 29.0728 14.465C29.1409 14.6045 29.204 14.7473 29.2621 14.8918C29.2837 14.9499 29.3069 15.0081 29.3269 15.0678C29.3468 15.1276 29.38 15.2223 29.4049 15.2987C29.4298 15.3751 29.4415 15.4166 29.4581 15.478C29.478 15.5461 29.4946 15.6159 29.5112 15.6856C29.5112 15.6856 29.5112 15.6939 29.5112 15.6989C29.5262 15.7637 29.5411 15.8301 29.5527 15.8949C29.5644 15.9596 29.5843 16.0609 29.5976 16.1456C29.6108 16.2303 29.6175 16.2801 29.6241 16.3482C29.6308 16.4163 29.6391 16.4794 29.6441 16.5458C29.6449 16.5541 29.6449 16.5625 29.6441 16.5707C29.6441 16.6471 29.6557 16.7219 29.6573 16.7983C29.659 16.8746 29.6573 16.9494 29.6573 17.0258C29.6573 17.1022 29.6573 17.1769 29.6573 17.2516C29.6573 17.3264 29.6573 17.3645 29.6573 17.4177C29.6573 17.4459 29.6573 17.4741 29.6573 17.5024C29.6573 17.5788 29.6441 17.6568 29.6341 17.7349L29.6142 17.8794C29.5887 18.0454 29.5572 18.2115 29.5195 18.3776C29.5046 18.439 29.488 18.5004 29.4714 18.5619C29.4547 18.6233 29.4332 18.7014 29.4099 18.7711C29.3867 18.8409 29.3651 18.9123 29.3402 18.982C29.3153 19.0518 29.292 19.1149 29.2654 19.1797C29.2389 19.2444 29.2223 19.2876 29.1973 19.3457C29.1724 19.4038 29.1674 19.4171 29.1508 19.452C29.1342 19.4869 29.1077 19.5467 29.0844 19.5932C29.0612 19.6397 29.0246 19.7127 28.9931 19.7725C28.9615 19.8323 28.935 19.8805 28.9034 19.9386L28.8669 20.0017L28.7772 20.1495C28.7407 20.2109 28.7008 20.2707 28.6593 20.3305C28.6178 20.3903 28.5779 20.4501 28.5347 20.5082C28.4916 20.5663 28.45 20.6244 28.4052 20.6743C28.3604 20.7241 28.3006 20.8071 28.2391 20.8719C28.1561 20.9682 28.0731 21.0629 27.9817 21.1559C27.8904 21.2489 27.7609 21.38 27.6496 21.488L27.5035 21.6159L27.4785 21.6374C27.4304 21.6773 27.3806 21.7188 27.3307 21.757L27.1979 21.86C26.8226 22.1307 26.1351 22.5375 25.4027 22.5741H25.2998H17.7354L18.3349 21.5312L19.2167 19.9967L19.6319 19.266H23.6175C24.2114 19.2665 24.7811 19.0311 25.2015 18.6116C25.6219 18.1922 25.8585 17.623 25.8594 17.0291C25.8493 16.4259 25.6012 15.8512 25.1691 15.4303C24.737 15.0094 24.1559 14.7764 23.5527 14.7822H17.0661L10.0266 27.023H24.9278C25.1101 27.0236 25.292 27.0058 25.4708 26.9699C30.3565 25.9253 34 21.8683 34 17.0175Z" fill="url(#paint0_linear)" fill-opacity="0.5"/>
<path opacity="0.3" d="M15.1082 27.0471L17.7652 22.4802H21.9169L19.3429 27.0471H15.1082Z" fill="url(#paint1_linear)"/>
</g>
<path d="M56.18 16.98C56.3 16.36 56.36 15.8 56.36 15.3C56.36 14.54 56.24 13.88 56.02 13.34C55.78 12.8 55.48 12.36 55.1 12.02C54.72 11.68 54.28 11.42 53.82 11.24C53.34 11.08 52.86 11 52.38 11H45.76L43 24H49.62C50.34 24 51.04 23.88 51.7 23.66C52.36 23.44 52.98 23.08 53.54 22.6C54.08 22.12 54.58 21.5 55 20.74C55.42 20 55.74 19.08 55.96 18.02L56.18 16.98ZM53.74 17.8C53.58 18.56 53.34 19.2 53.04 19.74C52.74 20.28 52.38 20.74 51.96 21.08C51.54 21.42 51.1 21.68 50.62 21.84C50.12 22 49.62 22.08 49.08 22.08H45.66L47.62 12.92H51.04C51.46 12.92 51.86 12.96 52.24 13.06C52.6 13.16 52.92 13.34 53.2 13.56C53.46 13.78 53.68 14.08 53.84 14.44C53.98 14.8 54.06 15.24 54.06 15.74C54.06 16.04 54 16.48 53.9 17.06L53.74 17.8ZM60.9519 14.44L61.6719 11H61.0319C60.7119 11 60.4319 11.06 60.2119 11.16C59.9719 11.28 59.7719 11.42 59.6119 11.56C59.4519 11.72 59.3319 11.88 59.2519 12.04C59.1719 12.22 59.1119 12.36 59.0919 12.48L58.6919 14.44H60.9519ZM60.9297 24L63.6897 11H69.8697C71.0897 11 71.9697 11.26 72.5497 11.78C73.1097 12.32 73.3897 13.04 73.3897 13.96C73.3897 14.3 73.3497 14.68 73.2697 15.08C73.1297 15.78 72.8297 16.4 72.3697 16.94C71.9097 17.48 71.3697 17.92 70.7497 18.3C70.1297 18.68 69.4897 18.96 68.7897 19.14C68.0897 19.34 67.4497 19.44 66.8497 19.46L66.6297 17.5C67.2297 17.5 67.7897 17.44 68.3097 17.3C68.8097 17.16 69.2697 16.98 69.6497 16.76C70.0297 16.54 70.3497 16.26 70.5897 15.96C70.8297 15.66 70.9897 15.32 71.0497 14.98V14.94C71.0897 14.76 71.1097 14.6 71.1097 14.42C71.1097 14.12 71.0497 13.86 70.9297 13.66C70.7897 13.48 70.6497 13.32 70.4897 13.2C70.3097 13.1 70.1497 13.02 69.9897 12.98C69.8097 12.94 69.6897 12.92 69.6097 12.92H65.5497L63.1897 24H60.9297ZM76.1311 11H82.3111C83.4511 11 84.3111 11.22 84.9311 11.64C85.5511 12.06 85.8511 12.78 85.8511 13.78C85.8511 13.98 85.8511 14.18 85.8311 14.38C85.8111 14.6 85.7711 14.8 85.7111 15.02C85.6111 15.56 85.4311 16.04 85.1711 16.46C84.9111 16.9 84.6111 17.28 84.2711 17.62C83.9111 17.96 83.5111 18.24 83.0911 18.46C82.6511 18.7 82.2111 18.88 81.7511 19L83.9911 24H81.7111L78.9311 17.58C79.0311 17.5 79.1311 17.46 79.1911 17.44C79.2511 17.42 79.3111 17.42 79.3911 17.42C80.4311 17.42 81.3111 17.24 82.0311 16.86C82.7311 16.48 83.2311 15.86 83.4911 14.98V14.94C83.5311 14.76 83.5511 14.6 83.5511 14.42C83.5511 14.12 83.4911 13.86 83.3711 13.66C83.2311 13.48 83.0911 13.32 82.9311 13.2C82.7511 13.1 82.5911 13.02 82.4311 12.98C82.2511 12.94 82.1311 12.92 82.0511 12.92H77.9911L75.6311 24H73.3711L76.1311 11ZM88.1125 24H85.8325L88.5925 11H90.8725L88.1125 24ZM103.369 24H101.129L102.969 15.3L97.6689 24H95.9889L94.2889 15.06L92.3889 24H90.1289L92.8889 11H95.7289L97.5889 20.18L103.029 11H106.129L103.369 24ZM115.363 16.4H109.243L109.983 12.92H116.703L117.363 11H108.123L105.363 24H114.343L115.003 22.08H108.023L108.843 18.3H114.703L115.363 16.4Z" fill="white"/>
<path d="M56.18 16.98C56.3 16.36 56.36 15.8 56.36 15.3C56.36 14.54 56.24 13.88 56.02 13.34C55.78 12.8 55.48 12.36 55.1 12.02C54.72 11.68 54.28 11.42 53.82 11.24C53.34 11.08 52.86 11 52.38 11H45.76L43 24H49.62C50.34 24 51.04 23.88 51.7 23.66C52.36 23.44 52.98 23.08 53.54 22.6C54.08 22.12 54.58 21.5 55 20.74C55.42 20 55.74 19.08 55.96 18.02L56.18 16.98ZM53.74 17.8C53.58 18.56 53.34 19.2 53.04 19.74C52.74 20.28 52.38 20.74 51.96 21.08C51.54 21.42 51.1 21.68 50.62 21.84C50.12 22 49.62 22.08 49.08 22.08H45.66L47.62 12.92H51.04C51.46 12.92 51.86 12.96 52.24 13.06C52.6 13.16 52.92 13.34 53.2 13.56C53.46 13.78 53.68 14.08 53.84 14.44C53.98 14.8 54.06 15.24 54.06 15.74C54.06 16.04 54 16.48 53.9 17.06L53.74 17.8ZM60.9519 14.44L61.6719 11H61.0319C60.7119 11 60.4319 11.06 60.2119 11.16C59.9719 11.28 59.7719 11.42 59.6119 11.56C59.4519 11.72 59.3319 11.88 59.2519 12.04C59.1719 12.22 59.1119 12.36 59.0919 12.48L58.6919 14.44H60.9519ZM60.9297 24L63.6897 11H69.8697C71.0897 11 71.9697 11.26 72.5497 11.78C73.1097 12.32 73.3897 13.04 73.3897 13.96C73.3897 14.3 73.3497 14.68 73.2697 15.08C73.1297 15.78 72.8297 16.4 72.3697 16.94C71.9097 17.48 71.3697 17.92 70.7497 18.3C70.1297 18.68 69.4897 18.96 68.7897 19.14C68.0897 19.34 67.4497 19.44 66.8497 19.46L66.6297 17.5C67.2297 17.5 67.7897 17.44 68.3097 17.3C68.8097 17.16 69.2697 16.98 69.6497 16.76C70.0297 16.54 70.3497 16.26 70.5897 15.96C70.8297 15.66 70.9897 15.32 71.0497 14.98V14.94C71.0897 14.76 71.1097 14.6 71.1097 14.42C71.1097 14.12 71.0497 13.86 70.9297 13.66C70.7897 13.48 70.6497 13.32 70.4897 13.2C70.3097 13.1 70.1497 13.02 69.9897 12.98C69.8097 12.94 69.6897 12.92 69.6097 12.92H65.5497L63.1897 24H60.9297ZM76.1311 11H82.3111C83.4511 11 84.3111 11.22 84.9311 11.64C85.5511 12.06 85.8511 12.78 85.8511 13.78C85.8511 13.98 85.8511 14.18 85.8311 14.38C85.8111 14.6 85.7711 14.8 85.7111 15.02C85.6111 15.56 85.4311 16.04 85.1711 16.46C84.9111 16.9 84.6111 17.28 84.2711 17.62C83.9111 17.96 83.5111 18.24 83.0911 18.46C82.6511 18.7 82.2111 18.88 81.7511 19L83.9911 24H81.7111L78.9311 17.58C79.0311 17.5 79.1311 17.46 79.1911 17.44C79.2511 17.42 79.3111 17.42 79.3911 17.42C80.4311 17.42 81.3111 17.24 82.0311 16.86C82.7311 16.48 83.2311 15.86 83.4911 14.98V14.94C83.5311 14.76 83.5511 14.6 83.5511 14.42C83.5511 14.12 83.4911 13.86 83.3711 13.66C83.2311 13.48 83.0911 13.32 82.9311 13.2C82.7511 13.1 82.5911 13.02 82.4311 12.98C82.2511 12.94 82.1311 12.92 82.0511 12.92H77.9911L75.6311 24H73.3711L76.1311 11ZM88.1125 24H85.8325L88.5925 11H90.8725L88.1125 24ZM103.369 24H101.129L102.969 15.3L97.6689 24H95.9889L94.2889 15.06L92.3889 24H90.1289L92.8889 11H95.7289L97.5889 20.18L103.029 11H106.129L103.369 24ZM115.363 16.4H109.243L109.983 12.92H116.703L117.363 11H108.123L105.363 24H114.343L115.003 22.08H108.023L108.843 18.3H114.703L115.363 16.4Z" fill="url(#paint2_linear)" fill-opacity="0.9"/>
</g>
<defs>
<filter id="filter0_d" x="0" y="0.977051" width="135" height="40.046" filterUnits="userSpaceOnUse" color-interpolation-filters="sRGB">
<feFlood flood-opacity="0" result="BackgroundImageFix"/>
<feColorMatrix in="SourceAlpha" type="matrix" values="0 0 0 0 0 0 0 0 0 0 0 0 0 0 0 0 0 0 127 0"/>
<feOffset dy="4"/>
<feGaussianBlur stdDeviation="5"/>
<feColorMatrix type="matrix" values="0 0 0 0 0.115979 0 0 0 0 0.182378 0 0 0 0 0.787782 0 0 0 0.3 0"/>
<feBlend mode="normal" in2="BackgroundImageFix" result="effect1_dropShadow"/>
<feBlend mode="normal" in="SourceGraphic" in2="effect1_dropShadow" result="shape"/>
</filter>
<linearGradient id="paint0_linear" x1="14.61" y1="7.036" x2="32.4622" y2="29.7872" gradientUnits="userSpaceOnUse">
<stop stop-color="#C3CEFF" stop-opacity="0.48"/>
<stop offset="1" stop-color="white"/>
</linearGradient>
<linearGradient id="paint1_linear" x1="15.5233" y1="26.5489" x2="19.4689" y2="28.5358" gradientUnits="userSpaceOnUse">
<stop stop-color="#233A80"/>
<stop offset="1" stop-color="white" stop-opacity="0"/>
</linearGradient>
<linearGradient id="paint2_linear" x1="47.4725" y1="9.24841" x2="61.0594" y2="50.7219" gradientUnits="userSpaceOnUse">
<stop stop-color="#C3CEFF" stop-opacity="0.43"/>
<stop offset="1" stop-color="white"/>
</linearGradient>
<clipPath id="clip0">
<rect width="24" height="20.046" fill="white" transform="translate(10 6.97705)"/>
</clipPath>
</defs>
</svg>
